<svg width="95" height="24" viewBox="0 0 95 24" fill="none" xmlns="http://www.w3.org/2000/svg">
<path d="M16.4095 14.288C17.1414 18.8496 14.0855 23.1487 9.58408 23.8904C5.08262 24.632 0.840159 21.5354 0.108276 16.9738C-0.623607 12.4122 2.43224 8.1131 6.93369 7.37144C11.4351 6.62978 15.6776 9.72644 16.4095 14.288Z" fill="url(#paint0_linear)"/>
<path d="M5.97161 7.59948C8.66146 8.13132 12.0581 8.43745 16.2699 13.701C16.358 13.6414 15.8713 11.9008 16.5213 11.3597C17.3243 10.6912 19.028 11.1885 19.3039 10.5998C19.737 9.12315 10.5588 6.20809 5.97161 7.59948Z" fill="url(#paint1_linear)"/>
<path d="M22.0197 9.66354C21.8789 4.47121 25.9185 0.146319 31.0424 0.00362026C36.1663 -0.139078 40.4342 3.95446 40.575 9.14679C40.7158 14.3391 36.6762 18.664 31.5523 18.8067C26.4284 18.9494 22.1605 14.8559 22.0197 9.66354Z" fill="url(#paint2_linear)"/>
<path d="M32.6578 18.6988C29.7402 17.698 26.0018 16.8413 22.0885 10.3387C21.9816 10.3916 22.2663 12.4045 21.4623 12.9085C20.4689 13.5312 18.6447 12.7186 18.2504 13.3325C17.5496 14.9116 27.3423 19.5522 32.6578 18.6988Z" fill="url(#paint3_linear)"/>
<path d="M71.4586 7.36455C70.4366 7.36455 69.3464 7.70927 68.7332 8.43317C68.6991 7.74374 68.2903 7.36455 67.6089 7.36455C66.8253 7.36455 66.4506 7.77821 66.4506 8.57106V19.7054C66.4506 20.5671 66.9616 20.9808 67.7111 20.9808C68.4947 20.9808 68.9716 20.5327 68.9716 19.7054V16.1203C69.5508 16.8442 70.5047 17.0511 71.5268 17.0511C74.2182 17.0511 75.4447 14.7415 75.4447 12.2595C75.4447 8.91577 73.5709 7.36455 71.4586 7.36455ZM70.8795 15.0172C69.3123 15.0517 68.8354 13.466 68.8354 12.1561C68.8354 10.7083 69.3805 9.3639 70.8795 9.3639C72.2422 9.39837 72.8895 10.6393 72.8895 12.1561C72.9236 13.3626 72.5148 15.0172 70.8795 15.0172ZM81.9517 7.36455C80.9297 7.36455 79.8395 7.70927 79.2262 8.43317C79.1581 7.74374 78.7834 7.36455 78.0679 7.36455C77.2843 7.36455 76.9096 7.77821 76.9096 8.57106V19.7054C76.9096 20.5671 77.4206 20.9808 78.1701 20.9808C78.9537 20.9808 79.4307 20.5327 79.4307 19.7054V16.1203C80.0098 16.8442 80.9637 17.0511 81.9858 17.0511C84.6772 17.0511 85.9037 14.7415 85.9037 12.2595C85.9377 8.91577 84.064 7.36455 81.9517 7.36455ZM81.3726 15.0172C79.8054 15.0517 79.3285 13.466 79.3285 12.1561C79.3285 10.7083 79.8736 9.3639 81.3726 9.3639C82.7353 9.39837 83.3826 10.6393 83.3826 12.1561C83.3826 13.3626 83.0078 15.0172 81.3726 15.0172ZM64.4405 14.3278V10.0189C64.4405 8.1574 62.7371 7.36455 60.3183 7.36455C57.695 7.36455 56.2641 8.67447 56.2641 9.70861C56.2641 10.2257 56.707 10.7083 57.3543 10.7083C58.3764 10.7083 58.4104 9.29496 60.2842 9.29496C61.1359 9.29496 61.8854 9.6052 61.8854 10.3636C61.8854 11.0875 61.4085 11.2598 60.7952 11.3288L59.2281 11.5011C57.6609 11.6735 55.685 12.3629 55.685 14.4657C55.685 16.2927 57.3884 17.0166 58.8874 17.0855C60.4545 17.1545 61.5447 16.6719 62.2942 16.0858C62.4305 16.6719 62.8393 17.0855 63.657 17.0855C64.2361 17.0855 64.7472 16.6719 64.7472 16.0858C64.7472 15.6722 64.4405 15.3964 64.4405 14.3278ZM61.8854 12.7076C61.8854 14.3278 61.0337 15.3619 59.6369 15.3619C58.7511 15.3619 58.2401 14.8793 58.2401 14.2933C58.2401 13.5005 58.8193 13.1902 59.8754 13.0179L60.7952 12.88C61.1018 12.8111 61.6129 12.7421 61.8854 12.4663V12.7076ZM91.8316 18.0852C91.2183 19.8432 90.537 20.774 88.9358 20.774H88.7995C87.6752 20.774 87.1983 20.2224 87.1983 19.6019C87.1983 18.9125 87.6752 18.5678 88.3566 18.5678H88.5269C88.8676 18.5678 89.2424 18.5333 89.5149 17.7405L89.6171 17.4647L86.9598 9.77756C86.7554 9.15707 86.6532 8.8813 86.6532 8.57106C86.6532 7.88162 87.1983 7.33008 87.8796 7.33008C88.561 7.33008 89.038 7.70927 89.1742 8.29528L90.8095 14.3278H90.8436L92.4789 8.29528C92.6492 7.70927 93.0921 7.33008 93.7735 7.33008C94.4548 7.33008 94.9999 7.84715 94.9999 8.57106C94.9999 8.8813 94.8977 9.15707 94.6933 9.77756L91.8316 18.0852ZM51.9715 18.0852C51.3583 19.8432 50.6769 20.774 49.0757 20.774H48.9053C47.7811 20.774 47.3041 20.2224 47.3041 19.6019C47.3041 18.9125 47.7811 18.5678 48.4625 18.5678H48.6328C48.9735 18.5678 49.3482 18.5333 49.6208 17.7405L49.723 17.4647L47.0656 9.77756C46.8612 9.19154 46.759 8.8813 46.759 8.60553C46.759 7.9161 47.3041 7.36455 47.9855 7.36455C48.6669 7.36455 49.1438 7.74374 49.2801 8.32975L50.9154 14.3623H50.9495L52.5847 8.32975C52.7551 7.74374 53.198 7.36455 53.8793 7.36455C54.5607 7.36455 55.1058 7.88162 55.1058 8.60553C55.1058 8.91577 55.0036 9.19154 54.7992 9.81203L51.9715 18.0852Z" fill="white"/>
<defs>
<linearGradient id="paint0_linear" x1="3.30578" y1="8.98725" x2="5.9273" y2="24.8985" gradientUnits="userSpaceOnUse">
<stop stop-color="#2CCAFE"/>
<stop offset="1" stop-color="#0A91E7"/>
</linearGradient>
<linearGradient id="paint1_linear" x1="15.0117" y1="7.81565" x2="11.967" y2="13.4827" gradientUnits="userSpaceOnUse">
<stop stop-color="#2CCAFE"/>
<stop offset="1" stop-color="#0A91E7"/>
</linearGradient>
<linearGradient id="paint2_linear" x1="35.8324" y1="17.5577" x2="35.3277" y2="-0.565887" gradientUnits="userSpaceOnUse">
<stop stop-color="#FF8741"/>
<stop offset="1" stop-color="#FFA537"/>
</linearGradient>
<linearGradient id="paint3_linear" x1="24.8354" y1="19.3871" x2="27.1599" y2="15.2197" gradientUnits="userSpaceOnUse">
<stop stop-color="#FF8043"/>
<stop offset="1" stop-color="#FFA636"/>
</linearGradient>
</defs>
</svg>
